<svg width="18" height="17" viewBox="0 0 18 17" fill="none" xmlns="http://www.w3.org/2000/svg">
<path fill-rule="evenodd" clip-rule="evenodd" d="M8.9003 0.720581C3.9848 0.720581 0 4.34707 0 8.82058C0 13.2941 3.9848 16.9206 8.9003 16.9206C13.8158 16.9206 17.8006 13.2941 17.8006 8.82058C17.8006 6.67233 16.8629 4.61206 15.1938 3.09302C13.5246 1.57397 11.2608 0.720581 8.9003 0.720581ZM16.0204 8.82067C15.0011 8.54215 13.9428 8.40026 12.8786 8.39947C12.2454 8.40716 11.6142 8.46407 10.9917 8.56957C10.7692 8.07546 10.5378 7.59756 10.2886 7.11965C11.7523 6.45407 13.087 5.57585 14.2403 4.51951C15.3955 5.70475 16.0294 7.23635 16.0204 8.82067ZM9.67482 6.05042C10.9954 5.44754 12.1981 4.65125 13.2349 3.69337C11.9934 2.82015 10.4696 2.34462 8.9005 2.3407C8.32437 2.34281 7.75062 2.40808 7.19165 2.53509C8.11997 3.64542 8.95029 4.82087 9.67482 6.05042ZM5.8921 2.95621C6.85672 4.08858 7.71704 5.29144 8.46429 6.55255C6.90099 7.10812 5.23847 7.39644 3.56022 7.40304C3.03377 7.39781 2.50797 7.36808 1.98486 7.31394C2.49059 5.39587 3.92877 3.79187 5.8921 2.95621ZM1.78003 8.51285V8.82066C1.78415 10.4189 2.43713 11.9594 3.61349 13.1462C4.99839 11.0965 7.15624 9.57605 9.6835 8.86926C9.49661 8.44808 9.28302 8.0431 9.06943 7.63813L9.06942 7.63811L9.06942 7.6381L9.06938 7.63803C7.31815 8.28063 5.4483 8.61328 3.56009 8.61815C2.96493 8.61628 2.37045 8.58111 1.78003 8.51285ZM4.61035 13.9802C5.83119 12.0576 7.81573 10.6343 10.1552 10.0033C10.781 11.5771 11.2255 13.2058 11.4814 14.8631C9.18074 15.6868 6.57426 15.3549 4.61035 13.9883V13.9802ZM11.4722 9.72781C12.0402 11.2055 12.4631 12.7262 12.736 14.2719C14.3702 13.3221 15.5081 11.8068 15.8867 10.0761C14.9166 9.782 13.9009 9.63159 12.8784 9.63061C12.4078 9.63449 11.938 9.66696 11.4722 9.72781Z" fill="#7B7B7B"/>
</svg>
