<svg width="9" height="17" viewBox="0 0 9 17" fill="none" xmlns="http://www.w3.org/2000/svg">
<path d="M8.44444 3.42449H5.77778C5.28686 3.42449 4.88889 3.82743 4.88889 4.32449V7.02449H8.44444C8.54554 7.02222 8.64142 7.06984 8.70153 7.15218C8.76164 7.23452 8.77847 7.3413 8.74666 7.43849L8.08889 9.41849C8.02827 9.60021 7.86055 9.72306 7.67111 9.72449H4.88889V16.4745C4.88889 16.723 4.6899 16.9245 4.44444 16.9245H2.22222C1.97676 16.9245 1.77778 16.723 1.77778 16.4745V9.72449H0.444444C0.198984 9.72449 0 9.52302 0 9.27449V7.47449C0 7.22596 0.198984 7.02449 0.444444 7.02449H1.77778V4.32449C1.77778 2.33626 3.36965 0.724487 5.33333 0.724487H8.44444C8.6899 0.724487 8.88889 0.925959 8.88889 1.17449V2.97449C8.88889 3.22302 8.6899 3.42449 8.44444 3.42449Z" fill="#7B7B7B"/>
</svg>
