<svg width="18" height="17" viewBox="0 0 18 17" fill="none" xmlns="http://www.w3.org/2000/svg">
<path fill-rule="evenodd" clip-rule="evenodd" d="M0 2.63416C0 1.58156 0.89543 0.728271 2 0.728271C2.53043 0.728271 3.03914 0.929069 3.41421 1.28649C3.78929 1.64391 4 2.12868 4 2.63416C4 3.68675 3.10457 4.54004 2 4.54004C0.89543 4.54004 0 3.68675 0 2.63416ZM17.5 10.6484C17.5345 8.58517 16.0574 6.77717 13.95 6.30297C12.5377 6.01318 11.0657 6.39318 10 7.32261V6.92238C10 6.65923 9.77614 6.44591 9.5 6.44591H7C6.72386 6.44591 6.5 6.65923 6.5 6.92238V16.4518C6.5 16.7149 6.72386 16.9283 7 16.9283H9.5C9.77614 16.9283 10 16.7149 10 16.4518V11.0772C9.97531 10.1202 10.6753 9.28441 11.66 9.09509C12.2464 8.99863 12.8473 9.15598 13.2997 9.52439C13.752 9.8928 14.0087 10.434 14 11.001V16.4518C14 16.7149 14.2239 16.9283 14.5 16.9283H17C17.2761 16.9283 17.5 16.7149 17.5 16.4518V10.6484ZM4 6.92236V16.4518C4 16.7149 3.77614 16.9283 3.5 16.9283H1C0.723858 16.9283 0.5 16.7149 0.5 16.4518V6.92236C0.5 6.65922 0.723858 6.44589 1 6.44589H3.5C3.77614 6.44589 4 6.65922 4 6.92236Z" fill="#7B7B7B"/>
</svg>
