<svg width="16" height="16" viewBox="0 0 16 16" fill="none" xmlns="http://www.w3.org/2000/svg">
<path fill-rule="evenodd" clip-rule="evenodd" d="M12.3311 11.0715L15.886 14.6313C16.0448 14.8079 16.037 15.0783 15.8682 15.2454L15.2461 15.8684C15.1627 15.9526 15.0491 16 14.9306 16C14.8122 16 14.6986 15.9526 14.6152 15.8684L11.0603 12.3085C10.9619 12.21 10.8727 12.1028 10.7936 11.9881L10.1271 11.0982C9.02425 11.9801 7.65472 12.4602 6.24339 12.4598C3.33514 12.4699 0.807989 10.461 0.158073 7.62231C-0.491844 4.78365 0.908932 1.87288 3.5311 0.613257C6.15327 -0.646363 9.29701 0.0813446 11.1011 2.36555C12.9053 4.64977 12.8883 7.88086 11.0603 10.1459L11.949 10.76C12.0878 10.849 12.216 10.9535 12.3311 11.0715ZM1.7998 6.23008C1.7998 8.68763 3.78928 10.6799 6.24341 10.6799C7.42193 10.6799 8.55218 10.2111 9.38552 9.37656C10.2189 8.54206 10.687 7.41024 10.687 6.23008C10.687 3.77252 8.69755 1.78027 6.24341 1.78027C3.78928 1.78027 1.7998 3.77252 1.7998 6.23008Z" fill="black"/>
</svg>
