<svg width="19" height="17" viewBox="0 0 19 17" fill="none" xmlns="http://www.w3.org/2000/svg">
<path d="M18.796 3.06842C18.3103 3.72438 17.7232 4.29657 17.0574 4.76291C17.0574 4.93427 17.0574 5.10562 17.0574 5.28649C17.0628 8.39824 15.8352 11.382 13.6498 13.5689C11.4644 15.7558 8.50416 16.9628 5.43258 16.9195C3.65683 16.9255 1.90382 16.5149 0.310872 15.72C0.22498 15.682 0.169581 15.596 0.169908 15.501V15.3963C0.169908 15.2596 0.279301 15.1488 0.414246 15.1488C2.15976 15.0906 3.84301 14.4778 5.22583 13.3972C3.6459 13.365 2.22436 12.4173 1.57015 10.9602C1.53711 10.8806 1.5474 10.7893 1.5973 10.7193C1.64721 10.6493 1.72952 10.6107 1.81449 10.6175C2.29467 10.6663 2.77964 10.6211 3.24293 10.4842C1.49881 10.1176 0.188305 8.65158 0.000750258 6.85723C-0.00591569 6.77115 0.0321829 6.68777 0.101282 6.63722C0.170382 6.58667 0.260494 6.57624 0.339065 6.60972C0.80711 6.81882 1.31236 6.92896 1.82389 6.93338C0.29563 5.91777 -0.364478 3.98604 0.216896 2.2307C0.276907 2.06013 0.421084 1.93412 0.596445 1.89898C0.771806 1.86385 0.952482 1.92476 1.07208 2.05934C3.13437 4.28167 5.96799 5.60595 8.97548 5.75295C8.89845 5.44171 8.86056 5.12186 8.86271 4.80099C8.89084 3.11852 9.919 1.61975 11.4658 1.00633C13.0127 0.392916 14.7721 0.786265 15.9203 2.00223C16.703 1.85125 17.4597 1.58505 18.1664 1.2121C18.2181 1.17938 18.2838 1.17938 18.3355 1.2121C18.3678 1.26453 18.3678 1.33102 18.3355 1.38345C17.9933 2.17701 17.4151 2.84259 16.6815 3.28737C17.3239 3.21195 17.9549 3.05854 18.5611 2.83043C18.6121 2.79526 18.6792 2.79526 18.7302 2.83043C18.773 2.85024 18.8049 2.88811 18.8176 2.93397C18.8303 2.97982 18.8224 3.02901 18.796 3.06842Z" fill="#7B7B7B"/>
</svg>
